<svg width="200" height="201" viewBox="0 0 200 201" fill="none" xmlns="http://www.w3.org/2000/svg">
<path d="M183.333 92.8809V100.548C183.323 118.518 177.504 136.003 166.744 150.396C155.985 164.789 140.861 175.318 123.628 180.413C106.395 185.509 87.977 184.897 71.1204 178.669C54.2638 172.441 39.872 160.932 30.0912 145.856C20.3104 130.781 15.6648 112.948 16.8471 95.0168C18.0295 77.0856 24.9766 60.0169 36.6522 46.3565C48.3278 32.696 64.1064 23.1757 81.6347 19.2154C99.1631 15.2551 117.502 17.067 133.917 24.3809M183.333 33.881L123.57 93.7039C112.459 104.826 106.904 110.386 99.9981 110.388C93.0921 110.39 87.534 104.832 76.4178 93.7156L74.9998 92.2976" stroke="#4882B4" stroke-width="16.6667" stroke-linecap="round" stroke-linejoin="round"/>
</svg>
