<svg width="200" height="201" viewBox="0 0 200 201" fill="none" xmlns="http://www.w3.org/2000/svg">
<path d="M41.6665 17.1665H133.333C137.753 17.1665 141.993 18.9225 145.118 22.0481C148.244 25.1737 150 29.4129 150 33.8332V167.167C150 171.587 148.244 175.826 145.118 178.952C141.993 182.077 137.753 183.833 133.333 183.833H33.3332C28.9129 183.833 24.6737 182.077 21.5481 178.952C18.4225 175.826 16.6665 171.587 16.6665 167.167V33.8332C16.6665 27.5832 19.9165 17.1665 41.6665 17.1665Z" fill="#6D9BC3"/>
<path d="M74.9998 117.167H49.9998C47.7897 117.167 45.6701 116.289 44.1073 114.726C42.5445 113.163 41.6665 111.043 41.6665 108.833C41.6665 106.623 42.5445 104.503 44.1073 102.941C45.6701 101.378 47.7897 100.5 49.9998 100.5H74.9998C77.21 100.5 79.3296 101.378 80.8924 102.941C82.4552 104.503 83.3332 106.623 83.3332 108.833C83.3332 111.043 82.4552 113.163 80.8924 114.726C79.3296 116.289 77.21 117.167 74.9998 117.167ZM99.9998 83.8332C99.998 89.7345 101.563 95.5305 104.535 100.629C107.506 105.727 111.778 109.946 116.914 112.852C122.05 115.759 127.865 117.251 133.766 117.174C139.667 117.097 145.441 115.456 150.5 112.417L169.083 131C169.858 131.781 170.78 132.401 171.795 132.824C172.811 133.247 173.9 133.465 175 133.465C176.1 133.465 177.189 133.247 178.205 132.824C179.22 132.401 180.142 131.781 180.916 131C181.698 130.225 182.318 129.304 182.741 128.288C183.164 127.273 183.381 126.183 183.381 125.083C183.381 123.983 183.164 122.894 182.741 121.878C182.318 120.863 181.698 119.941 180.916 119.167L162.166 100.5C164.735 96.0726 166.249 91.1133 166.592 86.0065C166.934 80.8997 166.097 75.7826 164.143 71.0517C162.189 66.3209 159.173 62.1035 155.327 58.7264C151.481 55.3493 146.909 52.9033 141.965 51.5779C137.021 50.2525 131.839 50.0834 126.819 51.0836C121.799 52.0838 117.078 54.2266 113.02 57.3457C108.961 60.4648 105.676 64.4766 103.418 69.0699C101.161 73.6633 99.9908 78.7149 99.9998 83.8332ZM41.6665 142.167C41.6665 144.377 42.5445 146.496 44.1073 148.059C45.6701 149.622 47.7897 150.5 49.9998 150.5H108.333C110.543 150.5 112.663 149.622 114.226 148.059C115.789 146.496 116.667 144.377 116.667 142.167C116.667 139.956 115.789 137.837 114.226 136.274C112.663 134.711 110.543 133.833 108.333 133.833H49.9998C47.7897 133.833 45.6701 134.711 44.1073 136.274C42.5445 137.837 41.6665 139.956 41.6665 142.167Z" fill="#335C80"/>
</svg>
