<svg width="167" height="114" viewBox="0 0 167 114" fill="none" xmlns="http://www.w3.org/2000/svg">
<rect x="31.7482" y="11.2695" width="80.4655" height="58.599" rx="12.3322" fill="#4682B4"/>
<rect x="37.222" y="16.9038" width="69.5178" height="47.33" rx="6.16608" fill="white"/>
<path d="M56.9279 4.92645C56.9279 2.20565 59.1335 0 61.8543 0V11.269H56.9279V4.92645Z" fill="#4682B4"/>
<rect width="4.98707" height="20.9513" transform="matrix(-0.00144736 0.999999 -0.999999 -0.00153358 82.8098 0.0317383)" fill="#4682B4"/>
<path d="M47.2614 38.3302C48.6385 38.3323 49.7533 39.4504 49.7513 40.8275C49.7493 42.2047 48.6313 43.3193 47.2541 43.3172L37.2221 43.3018L37.2293 38.3148L47.2614 38.3302Z" fill="#4682B4"/>
<path d="M82.6548 0C85.3756 0 87.5812 2.20565 87.5812 4.92645V11.269H82.6548V0Z" fill="#4682B4"/>
<path d="M93.0552 30.4263L68.2177 50.7105L56.9279 41.4904" stroke="#FF8C00" stroke-width="6.16608" stroke-linecap="round" stroke-linejoin="round"/>
<path d="M12.5869 104.744C10.404 104.744 8.47631 104.276 6.80372 103.34C5.13114 102.377 3.81292 101.058 2.84906 99.3857C1.91355 97.7132 1.44579 95.7854 1.44579 93.6026C1.44579 91.4197 1.91355 89.492 2.84906 87.8194C3.81292 86.1468 5.11697 84.8428 6.7612 83.9073C8.43378 82.9434 10.3473 82.4615 12.5018 82.4615C14.5997 82.4615 16.499 82.9718 18.2 83.9923C19.9009 84.9845 21.1624 86.4161 21.9845 88.2872L17.5621 89.9881C17.1085 89.0526 16.414 88.3013 15.4785 87.7344C14.543 87.1674 13.4799 86.8839 12.2892 86.8839C11.1269 86.8839 10.0922 87.1816 9.18503 87.7769C8.27786 88.3439 7.56914 89.1376 7.05886 90.1582C6.54858 91.1504 6.29344 92.2985 6.29344 93.6026C6.29344 94.9066 6.54858 96.0689 7.05886 97.0895C7.59749 98.0817 8.32039 98.8755 9.22755 99.4708C10.1631 100.038 11.212 100.321 12.3743 100.321C13.5649 100.321 14.628 100.024 15.5635 99.4283C16.499 98.8046 17.1936 97.9683 17.6472 96.9194L22.0696 98.6203C21.2475 100.548 19.9859 102.051 18.285 103.128C16.6124 104.205 14.7131 104.744 12.5869 104.744ZM38.7364 104.233L38.5238 100.236V93.3049C38.5238 91.8591 38.3678 90.6543 38.056 89.6904C37.7725 88.6982 37.2906 87.947 36.6102 87.4367C35.9582 86.8981 35.0794 86.6288 33.9738 86.6288C32.9532 86.6288 32.0602 86.8414 31.2948 87.2666C30.5294 87.6918 29.8774 88.358 29.3387 89.2652L25.1714 87.7344C25.625 86.7989 26.2204 85.9342 26.9574 85.1404C27.7228 84.3183 28.6725 83.6663 29.8065 83.1844C30.9688 82.7024 32.3579 82.4615 33.9738 82.4615C36.0432 82.4615 37.7725 82.8725 39.1616 83.6947C40.5507 84.4884 41.5713 85.6366 42.2233 87.139C42.9037 88.6415 43.2438 90.4559 43.2438 92.582L43.1163 104.233H38.7364ZM32.613 104.744C30.0616 104.744 28.0772 104.177 26.6598 103.043C25.2707 101.909 24.5761 100.307 24.5761 98.2376C24.5761 96.0264 25.3132 94.3397 26.7873 93.1773C28.2898 92.015 30.3735 91.4339 33.0383 91.4339H38.7364V95.0909H34.5691C32.6697 95.0909 31.3373 95.3602 30.5719 95.8988C29.8065 96.4091 29.4238 97.1462 29.4238 98.11C29.4238 98.9322 29.7498 99.5842 30.4018 100.066C31.0822 100.52 32.0177 100.746 33.2083 100.746C34.2856 100.746 35.2211 100.506 36.0149 100.024C36.8087 99.5417 37.4182 98.9038 37.8434 98.11C38.297 97.3163 38.5238 96.4233 38.5238 95.4311H39.927C39.927 98.3227 39.3459 100.605 38.1836 102.277C37.0213 103.922 35.1644 104.744 32.613 104.744ZM51.2133 92.9222C51.2133 90.626 51.6527 88.7408 52.5315 87.2666C53.4103 85.7925 54.5443 84.701 55.9334 83.9923C57.3508 83.2553 58.825 82.8867 60.3558 82.8867V87.4367C59.0518 87.4367 57.8186 87.621 56.6563 87.9895C55.5223 88.3297 54.601 88.8967 53.8923 89.6904C53.1835 90.4842 52.8292 91.5331 52.8292 92.8372L51.2133 92.9222ZM48.0666 104.233V82.9718H52.8292V104.233H48.0666ZM72.9972 104.744C70.9277 104.744 69.085 104.276 67.4691 103.34C65.8816 102.377 64.6201 101.058 63.6846 99.3857C62.7774 97.7132 62.3238 95.7854 62.3238 93.6026C62.3238 91.4197 62.7916 89.492 63.7271 87.8194C64.6626 86.1468 65.9383 84.8428 67.5542 83.9073C69.1984 82.9434 71.0695 82.4615 73.1673 82.4615C75.0666 82.4615 76.7817 82.9576 78.3126 83.9498C79.8434 84.9137 81.0482 86.3169 81.9271 88.1596C82.8342 90.0023 83.2878 92.1993 83.2878 94.7507H66.5762L67.214 94.1554C67.214 95.4594 67.4975 96.5934 68.0645 97.5572C68.6315 98.4928 69.3827 99.2157 70.3182 99.7259C71.2537 100.236 72.2885 100.491 73.4224 100.491C74.7265 100.491 75.8037 100.208 76.6542 99.6409C77.5046 99.0456 78.1708 98.2801 78.6528 97.3446L82.8626 99.1306C82.2672 100.265 81.5018 101.257 80.5663 102.107C79.6592 102.958 78.5677 103.61 77.292 104.063C76.0447 104.517 74.6131 104.744 72.9972 104.744ZM67.5117 91.689L66.8313 91.0937H78.8229L78.185 91.689C78.185 90.5267 77.9299 89.577 77.4196 88.84C76.9093 88.0746 76.2573 87.5076 75.4635 87.139C74.6981 86.7422 73.8902 86.5437 73.0397 86.5437C72.1892 86.5437 71.3388 86.7422 70.4883 87.139C69.6378 87.5076 68.9291 88.0746 68.3621 88.84C67.7952 89.577 67.5117 90.5267 67.5117 91.689ZM96.4182 104.744C94.3487 104.744 92.506 104.276 90.8902 103.34C89.3026 102.377 88.0411 101.058 87.1056 99.3857C86.1984 97.7132 85.7448 95.7854 85.7448 93.6026C85.7448 91.4197 86.2126 89.492 87.1481 87.8194C88.0836 86.1468 89.3593 84.8428 90.9752 83.9073C92.6194 82.9434 94.4905 82.4615 96.5883 82.4615C98.4877 82.4615 100.203 82.9576 101.734 83.9498C103.264 84.9137 104.469 86.3169 105.348 88.1596C106.255 90.0023 106.709 92.1993 106.709 94.7507H89.9972L90.635 94.1554C90.635 95.4594 90.9185 96.5934 91.4855 97.5572C92.0525 98.4928 92.8037 99.2157 93.7392 99.7259C94.6747 100.236 95.7095 100.491 96.8434 100.491C98.1475 100.491 99.2247 100.208 100.075 99.6409C100.926 99.0456 101.592 98.2801 102.074 97.3446L106.284 99.1306C105.688 100.265 104.923 101.257 103.987 102.107C103.08 102.958 101.989 103.61 100.713 104.063C99.4657 104.517 98.0341 104.744 96.4182 104.744ZM90.9327 91.689L90.2523 91.0937H102.244L101.606 91.689C101.606 90.5267 101.351 89.577 100.841 88.84C100.33 88.0746 99.6783 87.5076 98.8845 87.139C98.1191 86.7422 97.3112 86.5437 96.4607 86.5437C95.6102 86.5437 94.7598 86.7422 93.9093 87.139C93.0589 87.5076 92.3501 88.0746 91.7832 88.84C91.2162 89.577 90.9327 90.5267 90.9327 91.689ZM113.503 92.9222C113.503 90.626 113.943 88.7408 114.821 87.2666C115.7 85.7925 116.834 84.701 118.223 83.9923C119.641 83.2553 121.115 82.8867 122.646 82.8867V87.4367C121.342 87.4367 120.109 87.621 118.946 87.9895C117.812 88.3297 116.891 88.8967 116.182 89.6904C115.473 90.4842 115.119 91.5331 115.119 92.8372L113.503 92.9222ZM110.357 104.233V82.9718H115.119V104.233H110.357Z" fill="#4882B4"/>
<path d="M128.101 104.829C127.279 104.829 126.57 104.545 125.975 103.978C125.408 103.383 125.124 102.674 125.124 101.852C125.124 101.03 125.408 100.321 125.975 99.7259C126.57 99.1306 127.279 98.8329 128.101 98.8329C128.923 98.8329 129.632 99.1306 130.227 99.7259C130.822 100.321 131.12 101.03 131.12 101.852C131.12 102.674 130.822 103.383 130.227 103.978C129.632 104.545 128.923 104.829 128.101 104.829ZM135.688 104.233V74.4671H140.45V104.233H135.688ZM149.097 113.248C148.416 113.248 147.651 113.121 146.8 112.866C145.978 112.61 145.184 112.284 144.419 111.888L146.205 108.018C146.744 108.273 147.24 108.472 147.693 108.613C148.147 108.783 148.515 108.868 148.799 108.868C149.479 108.868 150.046 108.684 150.5 108.316C150.982 107.975 151.364 107.465 151.648 106.785L154.157 100.917L161.343 82.9718H166.531L156.666 106.487C156.07 107.848 155.461 109.039 154.837 110.059C154.242 111.08 153.491 111.859 152.583 112.398C151.676 112.965 150.514 113.248 149.097 113.248ZM152.881 104.233L143.356 82.9718H148.544L155.943 100.874L157.474 104.233H152.881Z" fill="#FF8C00"/>
</svg>
